<svg width="218" height="49" viewBox="0 0 218 49" fill="none" xmlns="http://www.w3.org/2000/svg">
<mask id="path-1-outside-1_227_54" maskUnits="userSpaceOnUse" x="56.782" y="6.61206" width="161" height="36" fill="black">
<rect fill="white" x="56.782" y="6.61206" width="161" height="36"/>
<path d="M69.572 17.0801H71.588V32.9921C70.484 33.5441 69.524 33.9281 68.708 34.1441C67.916 34.3601 66.968 34.4681 65.864 34.4681C60.536 34.4681 57.848 31.9241 57.8 26.8361C57.776 23.5961 57.776 20.3441 57.8 17.0801H59.852C59.804 21.1601 59.792 24.2201 59.816 26.2601C59.84 28.4681 60.308 30.0521 61.22 31.0121C62.156 31.9481 63.608 32.4161 65.576 32.4161C67.376 32.4161 68.708 32.1161 69.572 31.5161V17.0801Z"/>
<path d="M81.535 34.5041C78.7029 34.5041 77.287 32.6201 77.287 28.8521V7.61206H79.267C79.243 13.8521 79.243 20.7401 79.267 28.2761C79.267 28.9241 79.2789 29.4521 79.3029 29.8601C79.351 30.2681 79.447 30.7001 79.591 31.1561C79.735 31.5881 79.9629 31.9121 80.275 32.1281C80.611 32.3441 81.043 32.4521 81.571 32.4521C81.787 32.4521 82.075 32.4161 82.435 32.3441L82.867 34.3241C82.195 34.4441 81.7509 34.5041 81.535 34.5041Z"/>
<path d="M102.083 17.0801L91.5345 41.9201H89.3745L92.6505 34.1801L85.3785 17.0801H87.5025L92.6505 29.3561L93.7305 32.2001L94.7745 29.3561L99.9225 17.0801H102.083Z"/>
<path d="M128.302 34.0001H126.25V18.0881C128.218 17.1041 130.15 16.6121 132.046 16.6121C137.398 16.6121 140.098 19.1561 140.146 24.2441C140.17 27.5081 140.17 30.7601 140.146 34.0001H138.13C138.178 30.9281 138.178 27.8681 138.13 24.8201C138.106 22.5881 137.626 21.0041 136.69 20.0681C135.778 19.1321 134.326 18.6641 132.334 18.6641C130.462 18.6641 129.118 18.9521 128.302 19.5281V34.0001Z"/>
<path d="M191.429 34.7201C188.453 34.7201 185.969 33.7121 183.977 31.6961L185.345 30.2921C186.977 31.9241 189.017 32.7401 191.465 32.7401C194.825 32.7401 196.505 31.7201 196.505 29.6801C196.505 28.2881 195.017 27.2921 192.041 26.6921L190.673 26.4041C188.801 25.9961 187.361 25.4081 186.353 24.6401C185.345 23.8721 184.841 22.7921 184.841 21.4001C184.841 19.9121 185.465 18.7361 186.713 17.8721C187.985 16.9841 189.521 16.5401 191.321 16.5401C193.769 16.5401 195.977 17.4161 197.945 19.1681L196.577 20.5001C195.185 19.1801 193.445 18.5201 191.357 18.5201C190.085 18.5201 189.005 18.7601 188.117 19.2401C187.253 19.7201 186.821 20.4041 186.821 21.2921C186.821 22.8761 188.177 23.9201 190.889 24.4241L192.221 24.6761C196.373 25.4681 198.449 27.1121 198.449 29.6081C198.449 33.0161 196.109 34.7201 191.429 34.7201Z"/>
<path fill-rule="evenodd" clip-rule="evenodd" d="M152.754 18.6281C154.602 18.6281 156.186 19.2881 157.506 20.6081C158.826 21.9041 159.486 23.5721 159.486 25.6121C159.486 27.8201 158.85 29.5361 157.578 30.7601C156.306 31.9841 154.698 32.5961 152.754 32.5961C150.834 32.5961 149.226 31.9841 147.93 30.7601L146.562 32.0921C148.218 33.7721 150.282 34.6121 152.754 34.6121C155.25 34.6121 157.314 33.7721 158.946 32.0921C160.602 30.4121 161.43 28.2521 161.43 25.6121C161.43 22.9721 160.578 20.8241 158.874 19.1681C157.194 17.4881 155.154 16.6481 152.754 16.6481C150.354 16.6481 148.302 17.4881 146.598 19.1681C144.918 20.8241 144.078 22.9721 144.078 25.6121H146.022C146.022 23.5721 146.682 21.9041 148.002 20.6081C149.322 19.2881 150.906 18.6281 152.754 18.6281Z"/>
<path fill-rule="evenodd" clip-rule="evenodd" d="M113.063 32.4161C111.167 32.4161 109.619 31.7801 108.419 30.5081L106.943 31.8761C108.551 33.6041 110.615 34.4681 113.135 34.4681C114.647 34.4681 116.003 34.1201 117.203 33.4241C118.403 32.7281 119.207 31.9001 119.615 30.9401L119.543 33.7121V34.0001H121.559V17.0801H119.471V17.5121L119.543 20.2841C119.135 19.2761 118.355 18.4241 117.203 17.7281C116.051 17.0081 114.695 16.6481 113.135 16.6481C110.663 16.6481 108.611 17.4641 106.979 19.0961C105.371 20.7281 104.567 22.8761 104.567 25.5401L106.619 25.6121L106.619 25.5401C106.619 23.5241 107.219 21.8801 108.419 20.6081C109.619 19.3361 111.167 18.7001 113.063 18.7001C114.935 18.7001 116.507 19.3601 117.779 20.6801C119.075 22.0001 119.723 23.6201 119.723 25.5401C119.723 27.4601 119.087 29.0921 117.815 30.4361C116.543 31.7561 114.959 32.4161 113.063 32.4161Z"/>
<path fill-rule="evenodd" clip-rule="evenodd" d="M175.463 29.5361L180.764 17.0801H178.604L173.528 29.5361H175.463ZM169.298 29.5361L164.024 17.0801H166.148L171.26 29.5361H169.298Z"/>
<path fill-rule="evenodd" clip-rule="evenodd" d="M204.874 7.61206H203.002V34.0001H204.874V7.61206ZM213.334 17.0801L206.458 25.1441H208.762L215.854 17.0801H213.334ZM212.524 29.5721H210.13L213.802 34.0001H216.286L212.524 29.5721Z"/>
<path d="M104.567 25.5401C104.567 28.0361 105.359 30.1481 106.943 31.8761L108.419 30.5081C107.233 29.2275 106.633 27.5955 106.619 25.6121L104.567 25.5401Z"/>
<path d="M147.93 30.7601C146.658 29.5361 146.022 27.8201 146.022 25.6121H144.078C144.078 28.2521 144.906 30.4121 146.562 32.0921L147.93 30.7601Z"/>
<path d="M171.188 34.0001H173.564L175.463 29.5361H173.528L172.412 32.4161L171.26 29.5361H169.298L171.188 34.0001Z"/>
<path d="M208.762 25.1441H206.458L210.13 29.5721H212.524L208.762 25.1441Z"/>
</mask>
<path d="M69.572 17.0801H71.588V32.9921C70.484 33.5441 69.524 33.9281 68.708 34.1441C67.916 34.3601 66.968 34.4681 65.864 34.4681C60.536 34.4681 57.848 31.9241 57.8 26.8361C57.776 23.5961 57.776 20.3441 57.8 17.0801H59.852C59.804 21.1601 59.792 24.2201 59.816 26.2601C59.84 28.4681 60.308 30.0521 61.22 31.0121C62.156 31.9481 63.608 32.4161 65.576 32.4161C67.376 32.4161 68.708 32.1161 69.572 31.5161V17.0801Z" fill="#131313"/>
<path d="M81.535 34.5041C78.7029 34.5041 77.287 32.6201 77.287 28.8521V7.61206H79.267C79.243 13.8521 79.243 20.7401 79.267 28.2761C79.267 28.9241 79.2789 29.4521 79.3029 29.8601C79.351 30.2681 79.447 30.7001 79.591 31.1561C79.735 31.5881 79.9629 31.9121 80.275 32.1281C80.611 32.3441 81.043 32.4521 81.571 32.4521C81.787 32.4521 82.075 32.4161 82.435 32.3441L82.867 34.3241C82.195 34.4441 81.7509 34.5041 81.535 34.5041Z" fill="#131313"/>
<path d="M102.083 17.0801L91.5345 41.9201H89.3745L92.6505 34.1801L85.3785 17.0801H87.5025L92.6505 29.3561L93.7305 32.2001L94.7745 29.3561L99.9225 17.0801H102.083Z" fill="#131313"/>
<path d="M128.302 34.0001H126.25V18.0881C128.218 17.1041 130.15 16.6121 132.046 16.6121C137.398 16.6121 140.098 19.1561 140.146 24.2441C140.17 27.5081 140.17 30.7601 140.146 34.0001H138.13C138.178 30.9281 138.178 27.8681 138.13 24.8201C138.106 22.5881 137.626 21.0041 136.69 20.0681C135.778 19.1321 134.326 18.6641 132.334 18.6641C130.462 18.6641 129.118 18.9521 128.302 19.5281V34.0001Z" fill="#131313"/>
<path d="M191.429 34.7201C188.453 34.7201 185.969 33.7121 183.977 31.6961L185.345 30.2921C186.977 31.9241 189.017 32.7401 191.465 32.7401C194.825 32.7401 196.505 31.7201 196.505 29.6801C196.505 28.2881 195.017 27.2921 192.041 26.6921L190.673 26.4041C188.801 25.9961 187.361 25.4081 186.353 24.6401C185.345 23.8721 184.841 22.7921 184.841 21.4001C184.841 19.9121 185.465 18.7361 186.713 17.8721C187.985 16.9841 189.521 16.5401 191.321 16.5401C193.769 16.5401 195.977 17.4161 197.945 19.1681L196.577 20.5001C195.185 19.1801 193.445 18.5201 191.357 18.5201C190.085 18.5201 189.005 18.7601 188.117 19.2401C187.253 19.7201 186.821 20.4041 186.821 21.2921C186.821 22.8761 188.177 23.9201 190.889 24.4241L192.221 24.6761C196.373 25.4681 198.449 27.1121 198.449 29.6081C198.449 33.0161 196.109 34.7201 191.429 34.7201Z" fill="#131313"/>
<path fill-rule="evenodd" clip-rule="evenodd" d="M152.754 18.6281C154.602 18.6281 156.186 19.2881 157.506 20.6081C158.826 21.9041 159.486 23.5721 159.486 25.6121C159.486 27.8201 158.85 29.5361 157.578 30.7601C156.306 31.9841 154.698 32.5961 152.754 32.5961C150.834 32.5961 149.226 31.9841 147.93 30.7601L146.562 32.0921C148.218 33.7721 150.282 34.6121 152.754 34.6121C155.25 34.6121 157.314 33.7721 158.946 32.0921C160.602 30.4121 161.43 28.2521 161.43 25.6121C161.43 22.9721 160.578 20.8241 158.874 19.1681C157.194 17.4881 155.154 16.6481 152.754 16.6481C150.354 16.6481 148.302 17.4881 146.598 19.1681C144.918 20.8241 144.078 22.9721 144.078 25.6121H146.022C146.022 23.5721 146.682 21.9041 148.002 20.6081C149.322 19.2881 150.906 18.6281 152.754 18.6281Z" fill="#131313"/>
<path fill-rule="evenodd" clip-rule="evenodd" d="M113.063 32.4161C111.167 32.4161 109.619 31.7801 108.419 30.5081L106.943 31.8761C108.551 33.6041 110.615 34.4681 113.135 34.4681C114.647 34.4681 116.003 34.1201 117.203 33.4241C118.403 32.7281 119.207 31.9001 119.615 30.9401L119.543 33.7121V34.0001H121.559V17.0801H119.471V17.5121L119.543 20.2841C119.135 19.2761 118.355 18.4241 117.203 17.7281C116.051 17.0081 114.695 16.6481 113.135 16.6481C110.663 16.6481 108.611 17.4641 106.979 19.0961C105.371 20.7281 104.567 22.8761 104.567 25.5401L106.619 25.6121L106.619 25.5401C106.619 23.5241 107.219 21.8801 108.419 20.6081C109.619 19.3361 111.167 18.7001 113.063 18.7001C114.935 18.7001 116.507 19.3601 117.779 20.6801C119.075 22.0001 119.723 23.6201 119.723 25.5401C119.723 27.4601 119.087 29.0921 117.815 30.4361C116.543 31.7561 114.959 32.4161 113.063 32.4161Z" fill="#131313"/>
<path fill-rule="evenodd" clip-rule="evenodd" d="M175.463 29.5361L180.764 17.0801H178.604L173.528 29.5361H175.463ZM169.298 29.5361L164.024 17.0801H166.148L171.26 29.5361H169.298Z" fill="#131313"/>
<path fill-rule="evenodd" clip-rule="evenodd" d="M204.874 7.61206H203.002V34.0001H204.874V7.61206ZM213.334 17.0801L206.458 25.1441H208.762L215.854 17.0801H213.334ZM212.524 29.5721H210.13L213.802 34.0001H216.286L212.524 29.5721Z" fill="#131313"/>
<path d="M104.567 25.5401C104.567 28.0361 105.359 30.1481 106.943 31.8761L108.419 30.5081C107.233 29.2275 106.633 27.5955 106.619 25.6121L104.567 25.5401Z" fill="#131313"/>
<path d="M147.93 30.7601C146.658 29.5361 146.022 27.8201 146.022 25.6121H144.078C144.078 28.2521 144.906 30.4121 146.562 32.0921L147.93 30.7601Z" fill="#131313"/>
<path d="M171.188 34.0001H173.564L175.463 29.5361H173.528L172.412 32.4161L171.26 29.5361H169.298L171.188 34.0001Z" fill="#131313"/>
<path d="M208.762 25.1441H206.458L210.13 29.5721H212.524L208.762 25.1441Z" fill="#131313"/>
<path d="M106.619 25.6121L106.61 25.8619L106.871 25.8711L106.869 25.6103L106.619 25.6121ZM144.078 25.8621H146.022V25.3621H144.078V25.8621ZM147.756 30.5809L146.388 31.9129L146.737 32.2712L148.105 30.9392L147.756 30.5809ZM106.369 25.5401C106.369 25.5647 106.369 25.5893 106.369 25.6138L106.869 25.6103C106.869 25.5869 106.869 25.5635 106.869 25.5401H106.369ZM104.558 25.7899L106.61 25.8619L106.628 25.3622L104.575 25.2902L104.558 25.7899ZM107.112 32.0594L108.588 30.6914L108.249 30.3247L106.773 31.6927L107.112 32.0594ZM171.26 29.2861H169.298V29.7861H171.26V29.2861ZM173.528 29.7861H175.463V29.2861H173.528V29.7861ZM206.458 25.3941H208.762V24.8941H206.458V25.3941ZM210.13 29.8221H212.524V29.3221H210.13V29.8221ZM69.572 17.0801V16.5801H69.072V17.0801H69.572ZM71.588 17.0801H72.088V16.5801H71.588V17.0801ZM71.588 32.9921L71.8116 33.4393L72.088 33.3011V32.9921H71.588ZM68.708 34.1441L68.58 33.6607L68.5764 33.6617L68.708 34.1441ZM57.8 26.8361L57.3 26.8398L57.3 26.8408L57.8 26.8361ZM57.8 17.0801V16.5801H57.3036L57.3 17.0764L57.8 17.0801ZM59.852 17.0801L60.3519 17.0859L60.3579 16.5801H59.852V17.0801ZM59.816 26.2601L60.316 26.2546L60.3159 26.2542L59.816 26.2601ZM61.22 31.0121L60.8574 31.3566L60.8664 31.3656L61.22 31.0121ZM69.572 31.5161L69.8572 31.9267L70.072 31.7776V31.5161H69.572ZM77.287 7.61206V7.11206H76.787V7.61206H77.287ZM79.267 7.61206L79.7669 7.61398L79.7689 7.11206H79.267V7.61206ZM79.267 28.2761H79.767L79.7669 28.2745L79.267 28.2761ZM79.3029 29.8601L78.8038 29.8894L78.8047 29.904L78.8064 29.9185L79.3029 29.8601ZM79.591 31.1561L79.1141 31.3066L79.1166 31.3142L79.591 31.1561ZM80.275 32.1281L79.9903 32.5392L79.9974 32.544L80.0046 32.5487L80.275 32.1281ZM82.435 32.3441L82.9235 32.2375L82.8187 31.7574L82.3369 31.8538L82.435 32.3441ZM82.867 34.3241L82.9548 34.8163L83.4662 34.725L83.3555 34.2175L82.867 34.3241ZM102.083 17.0801L102.543 17.2755L102.838 16.5801H102.083V17.0801ZM91.5345 41.9201V42.4201H91.8654L91.9947 42.1155L91.5345 41.9201ZM89.3745 41.9201L88.9141 41.7252L88.6199 42.4201H89.3745V41.9201ZM92.6505 34.1801L93.111 34.375L93.1936 34.1796L93.1106 33.9844L92.6505 34.1801ZM85.3785 17.0801V16.5801H84.6225L84.9184 17.2757L85.3785 17.0801ZM87.5025 17.0801L87.9636 16.8867L87.835 16.5801H87.5025V17.0801ZM92.6505 29.3561L93.1179 29.1786L93.1149 29.1706L93.1116 29.1627L92.6505 29.3561ZM93.7305 32.2001L93.2631 32.3776L93.7385 33.6294L94.1999 32.3724L93.7305 32.2001ZM94.7745 29.3561L94.3134 29.1627L94.309 29.1731L94.3051 29.1838L94.7745 29.3561ZM99.9225 17.0801V16.5801H99.59L99.4614 16.8867L99.9225 17.0801ZM108.419 30.5081L108.052 30.8478L108.055 30.8512L108.419 30.5081ZM117.815 30.4361L118.175 30.783L118.178 30.7798L117.815 30.4361ZM117.779 20.6801L117.418 21.027L117.422 21.0304L117.779 20.6801ZM108.419 20.6081L108.055 20.265L108.419 20.6081ZM106.619 25.5401H106.119L106.119 25.5418L106.619 25.5401ZM106.979 19.0961L106.625 18.7425L106.622 18.7451L106.979 19.0961ZM117.203 17.7281L116.937 18.1521L116.944 18.156L117.203 17.7281ZM119.543 20.2841L119.079 20.4717L120.042 20.2711L119.543 20.2841ZM119.471 17.5121H118.97L118.971 17.525L119.471 17.5121ZM119.471 17.0801V16.5801H118.971V17.0801H119.471ZM121.559 17.0801H122.059V16.5801H121.559V17.0801ZM121.559 34.0001V34.5001H122.059V34.0001H121.559ZM119.543 34.0001H119.043V34.5001H119.543V34.0001ZM119.543 33.7121L119.043 33.6991V33.7121H119.543ZM119.615 30.9401L120.114 30.953L119.154 30.7445L119.615 30.9401ZM117.203 33.4241L116.952 32.9915L117.203 33.4241ZM106.943 31.8761L106.574 32.2139L106.576 32.2167L106.943 31.8761ZM128.302 34.0001V34.5001H128.802V34.0001H128.302ZM126.25 34.0001H125.75V34.5001H126.25V34.0001ZM126.25 18.0881L126.026 17.6408L125.75 17.779V18.0881H126.25ZM140.146 24.2441L140.646 24.2404L140.646 24.2393L140.146 24.2441ZM140.146 34.0001V34.5001H140.642L140.646 34.0038L140.146 34.0001ZM138.13 34.0001L137.63 33.9922L137.622 34.5001H138.13V34.0001ZM138.13 24.8201L137.63 24.8254L137.63 24.8279L138.13 24.8201ZM136.69 20.0681L136.332 20.417L136.336 20.4216L136.69 20.0681ZM128.302 19.5281L128.013 19.1196L127.802 19.269V19.5281H128.302ZM157.506 20.6081L157.153 20.9616L157.156 20.9648L157.506 20.6081ZM148.002 20.6081L148.353 20.9649L148.356 20.9616L148.002 20.6081ZM147.93 30.7601L147.583 31.1204L147.587 31.1236L147.93 30.7601ZM157.578 30.7601L157.925 31.1203L157.578 30.7601ZM146.562 32.0921L146.918 31.7411L146.562 32.0921ZM146.598 19.1681L146.949 19.5241L146.949 19.5241L146.598 19.1681ZM158.874 19.1681L158.521 19.5217L158.526 19.5266L158.874 19.1681ZM158.946 32.0921L158.59 31.7411L158.588 31.7437L158.946 32.0921ZM180.764 17.0801L181.224 17.2758L181.52 16.5801H180.764V17.0801ZM173.564 34.0001V34.5001H173.894L174.024 34.1958L173.564 34.0001ZM171.188 34.0001L170.727 34.195L170.856 34.5001H171.188V34.0001ZM164.024 17.0801V16.5801H163.269L163.563 17.275L164.024 17.0801ZM166.148 17.0801L166.61 16.8902L166.483 16.5801H166.148V17.0801ZM171.26 29.5361L171.724 29.3504L171.722 29.3462L171.26 29.5361ZM172.412 32.4161L171.947 32.6018L172.419 33.7808L172.878 32.5967L172.412 32.4161ZM173.528 29.5361L173.065 29.3473L173.061 29.3554L173.528 29.5361ZM178.604 17.0801V16.5801H178.267L178.141 16.8914L178.604 17.0801ZM183.977 31.6961L183.619 31.3471L183.277 31.6985L183.622 32.0475L183.977 31.6961ZM185.345 30.2921L185.699 29.9385L185.341 29.5803L184.987 29.9431L185.345 30.2921ZM192.041 26.6921L191.938 27.1814L191.943 27.1822L192.041 26.6921ZM190.673 26.4041L190.567 26.8926L190.57 26.8933L190.673 26.4041ZM186.353 24.6401L186.05 25.0378L186.353 24.6401ZM186.713 17.8721L186.998 18.2832L187 18.282L186.713 17.8721ZM197.945 19.1681L198.294 19.5263L198.679 19.1517L198.278 18.7946L197.945 19.1681ZM196.577 20.5001L196.233 20.8629L196.582 21.1935L196.926 20.8583L196.577 20.5001ZM188.117 19.2401L187.88 18.8002L187.875 18.803L188.117 19.2401ZM190.889 24.4241L190.982 23.9328L190.981 23.9325L190.889 24.4241ZM192.221 24.6761L192.315 24.1849L192.314 24.1848L192.221 24.6761ZM203.002 7.61206V7.11206H202.502V7.61206H203.002ZM204.874 7.61206H205.374V7.11206H204.874V7.61206ZM204.874 34.0001V34.5001H205.374V34.0001H204.874ZM203.002 34.0001H202.502V34.5001H203.002V34.0001ZM206.458 25.1441L206.078 24.8196L205.805 25.1396L206.073 25.4632L206.458 25.1441ZM213.334 17.0801V16.5801H213.104L212.954 16.7556L213.334 17.0801ZM215.854 17.0801L216.23 17.4103L216.96 16.5801H215.854V17.0801ZM208.762 25.1441L208.387 24.8139L208.101 25.1384L208.381 25.4678L208.762 25.1441ZM216.286 34.0001V34.5001H217.367L216.667 33.6763L216.286 34.0001ZM213.802 34.0001L213.417 34.3192L213.567 34.5001H213.802V34.0001ZM106.619 25.6121L106.119 25.6138L106.119 25.6156L106.619 25.6121ZM169.298 29.5361L169.758 29.3411L169.298 29.5361ZM175.463 29.5361L175.003 29.3403L175.463 29.5361ZM212.524 29.5721L212.905 29.2483L212.524 29.5721ZM69.572 17.5801H71.588V16.5801H69.572V17.5801ZM71.088 17.0801V32.9921H72.088V17.0801H71.088ZM71.3644 32.5448C70.2783 33.0879 69.3517 33.4565 68.58 33.6607L68.8359 34.6274C69.6963 34.3997 70.6897 34.0002 71.8116 33.4393L71.3644 32.5448ZM68.5764 33.6617C67.8391 33.8628 66.9378 33.9681 65.864 33.9681V34.9681C66.9982 34.9681 67.9928 34.8574 68.8395 34.6264L68.5764 33.6617ZM65.864 33.9681C63.2719 33.9681 61.4129 33.3489 60.1957 32.1969C58.9827 31.0489 58.3232 29.2919 58.3 26.8313L57.3 26.8408C57.3248 29.4682 58.0333 31.5272 59.5083 32.9232C60.9791 34.3152 63.1281 34.9681 65.864 34.9681V33.9681ZM58.3 26.8324C58.276 23.5948 58.276 20.3453 58.3 17.0837L57.3 17.0764C57.276 20.3428 57.276 23.5973 57.3 26.8398L58.3 26.8324ZM57.8 17.5801H59.852V16.5801H57.8V17.5801ZM59.352 17.0742C59.304 21.1551 59.2919 24.2198 59.316 26.2659L60.3159 26.2542C60.292 24.2203 60.304 21.1651 60.3519 17.0859L59.352 17.0742ZM59.316 26.2655C59.3405 28.5209 59.8162 30.2604 60.8575 31.3564L61.5825 30.6677C60.7997 29.8437 60.3394 28.4152 60.316 26.2546L59.316 26.2655ZM60.8664 31.3656C61.9334 32.4326 63.5394 32.9161 65.576 32.9161V31.9161C63.6766 31.9161 62.3786 31.4635 61.5735 30.6585L60.8664 31.3656ZM65.576 32.9161C67.4132 32.9161 68.8686 32.6133 69.8572 31.9267L69.2868 31.1054C68.5473 31.6189 67.3387 31.9161 65.576 31.9161V32.9161ZM70.072 31.5161V17.0801H69.072V31.5161H70.072ZM81.535 34.0041C80.2405 34.0041 79.3427 33.581 78.7486 32.7907C78.1344 31.9734 77.787 30.6878 77.787 28.8521H76.787C76.787 30.7843 77.1475 32.3247 77.9493 33.3915C78.7712 34.4851 79.9974 35.0041 81.535 35.0041V34.0041ZM77.787 28.8521V7.61206H76.787V28.8521H77.787ZM77.287 8.11206H79.267V7.11206H77.287V8.11206ZM78.767 7.61014C78.7429 13.8515 78.743 20.7407 78.767 28.2777L79.7669 28.2745C79.743 20.7394 79.743 13.8526 79.7669 7.61398L78.767 7.61014ZM78.767 28.2761C78.767 28.9289 78.779 29.4677 78.8038 29.8894L79.8021 29.8307C79.7789 29.4364 79.767 28.9192 79.767 28.2761H78.767ZM78.8064 29.9185C78.8586 30.3623 78.9622 30.8254 79.1142 31.3066L80.0677 31.0055C79.9317 30.5748 79.8433 30.1738 79.7995 29.8016L78.8064 29.9185ZM79.1166 31.3142C79.2878 31.8277 79.5727 32.25 79.9903 32.5392L80.5596 31.717C80.3532 31.5741 80.1821 31.3484 80.0653 30.9979L79.1166 31.3142ZM80.0046 32.5487C80.4433 32.8307 80.9773 32.9521 81.571 32.9521V31.9521C81.1086 31.9521 80.7786 31.8574 80.5453 31.7075L80.0046 32.5487ZM81.571 32.9521C81.8348 32.9521 82.1598 32.909 82.533 32.8344L82.3369 31.8538C81.9901 31.9231 81.7391 31.9521 81.571 31.9521V32.9521ZM81.9464 32.4506L82.3784 34.4306L83.3555 34.2175L82.9235 32.2375L81.9464 32.4506ZM82.7791 33.8318C82.0979 33.9535 81.6987 34.0041 81.535 34.0041V35.0041C81.8032 35.0041 82.292 34.9346 82.9548 34.8163L82.7791 33.8318ZM101.622 16.8846L91.0743 41.7246L91.9947 42.1155L102.543 17.2755L101.622 16.8846ZM91.5345 41.4201H89.3745V42.4201H91.5345V41.4201ZM89.835 42.115L93.111 34.375L92.1901 33.9852L88.9141 41.7252L89.835 42.115ZM93.1106 33.9844L85.8386 16.8844L84.9184 17.2757L92.1904 34.3757L93.1106 33.9844ZM85.3785 17.5801H87.5025V16.5801H85.3785V17.5801ZM87.0414 17.2734L92.1894 29.5494L93.1116 29.1627L87.9636 16.8867L87.0414 17.2734ZM92.1831 29.5336L93.2631 32.3776L94.1979 32.0226L93.1179 29.1786L92.1831 29.5336ZM94.1999 32.3724L95.2439 29.5284L94.3051 29.1838L93.2611 32.0278L94.1999 32.3724ZM95.2356 29.5494L100.384 17.2734L99.4614 16.8867L94.3134 29.1627L95.2356 29.5494ZM99.9225 17.5801H102.083V16.5801H99.9225V17.5801ZM108.055 30.8512C109.358 32.2323 111.042 32.9161 113.063 32.9161V31.9161C111.291 31.9161 109.879 31.3278 108.782 30.165L108.055 30.8512ZM113.063 32.9161C115.089 32.9161 116.805 32.2045 118.175 30.783L117.454 30.0891C116.28 31.3076 114.828 31.9161 113.063 31.9161V32.9161ZM118.178 30.7798C119.541 29.3391 120.223 27.5826 120.223 25.5401H119.223C119.223 27.3375 118.632 28.845 117.451 30.0924L118.178 30.7798ZM120.223 25.5401C120.223 23.4946 119.527 21.7471 118.135 20.3298L117.422 21.0304C118.622 22.253 119.223 23.7456 119.223 25.5401H120.223ZM118.139 20.3331C116.77 18.913 115.067 18.2001 113.063 18.2001V19.2001C114.802 19.2001 116.243 19.8071 117.418 21.027L118.139 20.3331ZM113.063 18.2001C111.042 18.2001 109.358 18.8838 108.055 20.265L108.782 20.9512C109.879 19.7883 111.291 19.2001 113.063 19.2001V18.2001ZM108.055 20.265C106.754 21.6439 106.119 23.4174 106.119 25.5401H107.119C107.119 23.6307 107.683 22.1162 108.782 20.9512L108.055 20.265ZM105.067 25.5401C105.067 22.9843 105.834 20.9702 107.335 19.447L106.622 18.7451C104.907 20.4859 104.067 22.7678 104.067 25.5401H105.067ZM107.332 19.4496C108.863 17.9185 110.785 17.1481 113.135 17.1481V16.1481C110.54 16.1481 108.358 17.0096 106.625 18.7425L107.332 19.4496ZM113.135 17.1481C114.615 17.1481 115.876 17.4888 116.938 18.1521L117.468 17.3041C116.225 16.5274 114.774 16.1481 113.135 16.1481V17.1481ZM116.944 18.156C118.026 18.8097 118.72 19.5856 119.079 20.4717L120.006 20.0965C119.549 18.9665 118.683 18.0385 117.461 17.3001L116.944 18.156ZM120.042 20.2711L119.97 17.4991L118.971 17.525L119.043 20.297L120.042 20.2711ZM119.971 17.5121V17.0801H118.971V17.5121H119.971ZM119.471 17.5801H121.559V16.5801H119.471V17.5801ZM121.059 17.0801V34.0001H122.059V17.0801H121.059ZM121.559 33.5001H119.543V34.5001H121.559V33.5001ZM120.043 34.0001V33.7121H119.043V34.0001H120.043ZM120.042 33.725L120.114 30.953L119.115 30.9271L119.043 33.6991L120.042 33.725ZM119.154 30.7445C118.801 31.5766 118.089 32.332 116.952 32.9915L117.453 33.8566C118.716 33.1241 119.612 32.2235 120.075 31.1356L119.154 30.7445ZM116.952 32.9915C115.835 33.6394 114.567 33.9681 113.135 33.9681V34.9681C114.726 34.9681 116.17 34.6007 117.453 33.8566L116.952 32.9915ZM113.135 33.9681C110.743 33.9681 108.815 33.1543 107.309 31.5354L106.576 32.2167C108.286 34.0538 110.486 34.9681 113.135 34.9681V33.9681ZM107.311 31.5382C105.817 29.9087 105.067 27.9198 105.067 25.5401H104.067C104.067 28.1523 104.9 30.3874 106.574 32.2139L107.311 31.5382ZM128.302 33.5001H126.25V34.5001H128.302V33.5001ZM126.75 34.0001V18.0881H125.75V34.0001H126.75ZM126.473 18.5353C128.383 17.5804 130.239 17.1121 132.046 17.1121V16.1121C130.061 16.1121 128.052 16.6277 126.026 17.6408L126.473 18.5353ZM132.046 17.1121C134.65 17.1121 136.519 17.7315 137.742 18.884C138.96 20.0321 139.623 21.7888 139.646 24.2488L140.646 24.2393C140.621 21.6113 139.909 19.552 138.428 18.1562C136.951 16.7646 134.793 16.1121 132.046 16.1121V17.1121ZM139.646 24.2477C139.67 27.5093 139.67 30.7588 139.646 33.9964L140.646 34.0038C140.67 30.7613 140.67 27.5068 140.646 24.2404L139.646 24.2477ZM140.146 33.5001H138.13V34.5001H140.146V33.5001ZM138.63 34.0079C138.678 30.9307 138.678 27.8655 138.63 24.8122L137.63 24.8279C137.678 27.8707 137.678 30.9254 137.63 33.9922L138.63 34.0079ZM138.63 24.8147C138.605 22.5361 138.118 20.789 137.043 19.7145L136.336 20.4216C137.134 21.2191 137.606 22.64 137.63 24.8254L138.63 24.8147ZM137.048 19.7191C136.002 18.646 134.391 18.1641 132.334 18.1641V19.1641C134.261 19.1641 135.553 19.6181 136.332 20.417L137.048 19.7191ZM132.334 18.1641C130.436 18.1641 128.96 18.4512 128.013 19.1196L128.59 19.9365C129.275 19.453 130.488 19.1641 132.334 19.1641V18.1641ZM127.802 19.5281V34.0001H128.802V19.5281H127.802ZM157.86 20.2545C156.447 18.8418 154.736 18.1281 152.754 18.1281V19.1281C154.468 19.1281 155.925 19.7343 157.153 20.9616L157.86 20.2545ZM152.754 18.1281C150.772 18.1281 149.061 18.8418 147.649 20.2545L148.356 20.9616C149.583 19.7343 151.04 19.1281 152.754 19.1281V18.1281ZM147.652 20.2513C146.226 21.6514 145.522 23.4531 145.522 25.6121H146.522C146.522 23.6911 147.139 22.1567 148.352 20.9648L147.652 20.2513ZM145.522 25.6121C145.522 27.9198 146.19 29.7796 147.584 31.1203L148.277 30.3998C147.126 29.2925 146.522 27.7203 146.522 25.6121H145.522ZM147.587 31.1236C148.983 32.4424 150.717 33.0961 152.754 33.0961V32.0961C150.951 32.0961 149.469 31.5258 148.274 30.3966L147.587 31.1236ZM152.754 33.0961C154.813 33.0961 156.55 32.4434 157.925 31.1203L157.232 30.3998C156.062 31.5247 154.583 32.0961 152.754 32.0961V33.0961ZM157.925 31.1203C159.318 29.7796 159.986 27.9198 159.986 25.6121H158.986C158.986 27.7203 158.382 29.2925 157.232 30.3998L157.925 31.1203ZM159.986 25.6121C159.986 23.4531 159.283 21.6514 157.856 20.2513L157.156 20.9648C158.37 22.1567 158.986 23.6911 158.986 25.6121H159.986ZM146.918 31.7411C145.366 30.1661 144.578 28.1378 144.578 25.6121H143.578C143.578 28.3664 144.447 30.658 146.206 32.4431L146.918 31.7411ZM144.578 25.6121C144.578 23.0884 145.376 21.0746 146.949 19.5241L146.247 18.812C144.46 20.5735 143.578 22.8557 143.578 25.6121H144.578ZM146.949 19.5241C148.559 17.9367 150.485 17.1481 152.754 17.1481V16.1481C150.223 16.1481 148.045 17.0395 146.247 18.812L146.949 19.5241ZM152.754 17.1481C155.023 17.1481 156.935 17.9364 158.521 19.5216L159.228 18.8145C157.453 17.0397 155.285 16.1481 152.754 16.1481V17.1481ZM158.526 19.5266C160.122 21.0776 160.93 23.0906 160.93 25.6121H161.93C161.93 22.8535 161.035 20.5706 159.223 18.8095L158.526 19.5266ZM160.93 25.6121C160.93 28.1378 160.143 30.1661 158.59 31.7411L159.302 32.4431C161.062 30.658 161.93 28.3664 161.93 25.6121H160.93ZM158.588 31.7437C157.056 33.3199 155.125 34.1121 152.754 34.1121V35.1121C155.375 35.1121 157.572 34.2242 159.305 32.4405L158.588 31.7437ZM152.754 34.1121C150.409 34.1121 148.475 33.3208 146.918 31.7411L146.206 32.4431C147.961 34.2234 150.155 35.1121 152.754 35.1121V34.1121ZM173.564 33.5001H171.188V34.5001H173.564V33.5001ZM164.024 17.5801H166.148V16.5801H164.024V17.5801ZM165.685 17.2699L170.797 29.7259L171.722 29.3462L166.61 16.8902L165.685 17.2699ZM170.795 29.7218L171.947 32.6018L172.876 32.2304L171.724 29.3504L170.795 29.7218ZM172.878 32.5967L173.994 29.7167L173.061 29.3554L171.945 32.2354L172.878 32.5967ZM173.991 29.7248L179.067 17.2688L178.141 16.8914L173.065 29.3474L173.991 29.7248ZM178.604 17.5801H180.764V16.5801H178.604V17.5801ZM191.429 34.2201C188.58 34.2201 186.226 33.2604 184.333 31.3446L183.622 32.0475C185.713 34.1637 188.327 35.2201 191.429 35.2201V34.2201ZM184.336 32.045L185.704 30.641L184.987 29.9431L183.619 31.3471L184.336 32.045ZM184.992 30.6456C186.724 32.3775 188.894 33.2401 191.465 33.2401V32.2401C189.141 32.2401 187.231 31.4706 185.699 29.9385L184.992 30.6456ZM191.465 33.2401C193.18 33.2401 194.549 32.9828 195.505 32.4025C196.501 31.7977 197.005 30.8667 197.005 29.6801H196.005C196.005 30.5335 195.67 31.1325 194.986 31.5477C194.262 31.9874 193.111 32.2401 191.465 32.2401V33.2401ZM197.005 29.6801C197.005 28.7699 196.506 28.0346 195.668 27.4736C194.844 26.9224 193.654 26.5071 192.14 26.2019L191.943 27.1822C193.405 27.477 194.447 27.8597 195.111 28.3046C195.761 28.7396 196.005 29.1982 196.005 29.6801H197.005ZM192.144 26.2028L190.776 25.9148L190.57 26.8933L191.938 27.1813L192.144 26.2028ZM190.78 25.9155C188.946 25.5159 187.584 24.9493 186.656 24.2423L186.05 25.0378C187.139 25.8668 188.657 26.4763 190.567 26.8926L190.78 25.9155ZM186.656 24.2423C185.786 23.5791 185.341 22.6537 185.341 21.4001H184.341C184.341 22.9304 184.905 24.165 186.05 25.0378L186.656 24.2423ZM185.341 21.4001C185.341 20.08 185.882 19.056 186.998 18.2832L186.429 17.461C185.049 18.4161 184.341 19.7441 184.341 21.4001H185.341ZM187 18.282C188.175 17.4616 189.607 17.0401 191.321 17.0401V16.0401C189.436 16.0401 187.796 16.5065 186.427 17.4621L187 18.282ZM191.321 17.0401C193.637 17.0401 195.729 17.8643 197.613 19.5415L198.278 18.7946C196.226 16.9679 193.902 16.0401 191.321 16.0401V17.0401ZM197.597 18.8098L196.229 20.1418L196.926 20.8583L198.294 19.5263L197.597 18.8098ZM196.921 20.1372C195.428 18.721 193.561 18.0201 191.357 18.0201V19.0201C193.33 19.0201 194.943 19.6391 196.233 20.8629L196.921 20.1372ZM191.357 18.0201C190.024 18.0201 188.857 18.2718 187.88 18.8002L188.355 19.6799C189.154 19.2484 190.147 19.0201 191.357 19.0201V18.0201ZM187.875 18.803C186.874 19.359 186.321 20.1988 186.321 21.2921H187.321C187.321 20.6093 187.633 20.0811 188.36 19.6771L187.875 18.803ZM186.321 21.2921C186.321 22.2531 186.744 23.0514 187.533 23.6592C188.301 24.2503 189.407 24.6571 190.798 24.9156L190.981 23.9325C189.66 23.6871 188.732 23.3198 188.143 22.8669C187.577 22.4308 187.321 21.915 187.321 21.2921H186.321ZM190.797 24.9153L192.129 25.1673L192.314 24.1848L190.982 23.9328L190.797 24.9153ZM192.128 25.1672C194.167 25.5562 195.634 26.1443 196.582 26.895C197.509 27.6289 197.949 28.5233 197.949 29.6081H198.949C198.949 28.1969 198.352 27.0212 197.203 26.1111C196.075 25.2178 194.428 24.588 192.315 24.1849L192.128 25.1672ZM197.949 29.6081C197.949 31.1844 197.417 32.2975 196.4 33.0379C195.354 33.7997 193.724 34.2201 191.429 34.2201V35.2201C193.815 35.2201 195.695 34.7884 196.989 33.8463C198.312 32.8827 198.949 31.4397 198.949 29.6081H197.949ZM203.002 8.11206H204.874V7.11206H203.002V8.11206ZM204.374 7.61206V34.0001H205.374V7.61206H204.374ZM204.874 33.5001H203.002V34.5001H204.874V33.5001ZM203.502 34.0001V7.61206H202.502V34.0001H203.502ZM206.839 25.4685L213.715 17.4045L212.954 16.7556L206.078 24.8196L206.839 25.4685ZM213.334 17.5801H215.854V16.5801H213.334V17.5801ZM215.479 16.7499L208.387 24.8139L209.138 25.4743L216.23 17.4103L215.479 16.7499ZM216.286 33.5001H213.802V34.5001H216.286V33.5001ZM106.119 25.6156C106.134 27.7055 106.77 29.4631 108.052 30.8478L108.785 30.1684C107.696 28.9919 107.132 27.4855 107.119 25.6085L106.119 25.6156ZM107.119 25.6103L107.119 25.5383L106.119 25.5418L106.119 25.6138L107.119 25.6103ZM171.648 33.8051L169.758 29.3411L168.837 29.731L170.727 34.195L171.648 33.8051ZM169.758 29.3411L164.484 16.8851L163.563 17.275L168.837 29.731L169.758 29.3411ZM180.304 16.8843L175.003 29.3403L175.923 29.7318L181.224 17.2758L180.304 16.8843ZM175.003 29.3403L173.104 33.8043L174.024 34.1958L175.923 29.7318L175.003 29.3403ZM214.187 33.6809L210.515 29.2529L209.745 29.8912L213.417 34.3192L214.187 33.6809ZM210.515 29.2529L206.843 24.8249L206.073 25.4632L209.745 29.8912L210.515 29.2529ZM208.381 25.4678L212.143 29.8958L212.905 29.2483L209.143 24.8203L208.381 25.4678ZM212.143 29.8958L215.905 34.3238L216.667 33.6763L212.905 29.2483L212.143 29.8958Z" fill="#131313" mask="url(#path-1-outside-1_227_54)"/>
<mask id="path-3-outside-2_227_54" maskUnits="userSpaceOnUse" x="159" y="38" width="59" height="11" fill="black">
<rect fill="white" x="159" y="38" width="59" height="11"/>
<path d="M161.92 41.75C161.4 41.75 160.96 41.9333 160.6 42.3C160.247 42.6667 160.07 43.1167 160.07 43.65C160.07 44.1833 160.247 44.6367 160.6 45.01C160.953 45.3767 161.393 45.56 161.92 45.56C162.447 45.56 162.877 45.3833 163.21 45.03C163.543 44.67 163.71 44.21 163.71 43.65C163.71 43.09 163.543 42.6333 163.21 42.28C162.877 41.9267 162.447 41.75 161.92 41.75ZM159.56 46V38.67H160.12V41.4L160.1 42.17C160.213 41.8833 160.433 41.6467 160.76 41.46C161.093 41.2733 161.473 41.18 161.9 41.18C162.58 41.18 163.147 41.4167 163.6 41.89C164.053 42.3567 164.28 42.9433 164.28 43.65C164.28 44.3767 164.06 44.9733 163.62 45.44C163.187 45.9 162.613 46.13 161.9 46.13C161.473 46.13 161.097 46.03 160.77 45.83C160.45 45.63 160.233 45.3967 160.12 45.13L160.14 45.9V46H159.56ZM166.593 45.03C166.926 45.3833 167.356 45.56 167.883 45.56C168.41 45.56 168.85 45.3767 169.203 45.01C169.556 44.6367 169.733 44.1833 169.733 43.65C169.733 43.1167 169.553 42.6667 169.193 42.3C168.84 41.9333 168.403 41.75 167.883 41.75C167.356 41.75 166.926 41.9267 166.593 42.28C166.26 42.6333 166.093 43.09 166.093 43.65C166.093 44.21 166.26 44.67 166.593 45.03ZM165.523 43.65C165.523 42.91 165.746 42.3133 166.193 41.86C166.646 41.4067 167.216 41.18 167.903 41.18C168.336 41.18 168.713 41.28 169.033 41.48C169.353 41.6733 169.57 41.91 169.683 42.19L169.663 41.42V41.3H170.243V46H169.683V45.92L169.703 45.15C169.59 45.4167 169.366 45.6467 169.033 45.84C168.7 46.0333 168.323 46.13 167.903 46.13C167.203 46.13 166.63 45.89 166.183 45.41C165.743 44.93 165.523 44.3433 165.523 43.65ZM173.716 41.8C173.53 41.76 173.35 41.74 173.176 41.74C172.883 41.74 172.626 41.79 172.406 41.89V46H171.846V41.47C172.293 41.27 172.72 41.17 173.126 41.17C173.38 41.17 173.62 41.1933 173.846 41.24L173.716 41.8ZM175.792 45.03C176.125 45.3833 176.555 45.56 177.082 45.56C177.608 45.56 178.048 45.3767 178.402 45.01C178.755 44.6367 178.932 44.1833 178.932 43.65C178.932 43.1167 178.752 42.6667 178.392 42.3C178.038 41.9333 177.602 41.75 177.082 41.75C176.555 41.75 176.125 41.9267 175.792 42.28C175.458 42.6333 175.292 43.09 175.292 43.65C175.292 44.21 175.458 44.67 175.792 45.03ZM174.722 43.65C174.722 42.91 174.945 42.3133 175.392 41.86C175.845 41.4067 176.415 41.18 177.102 41.18C177.535 41.18 177.912 41.28 178.232 41.48C178.552 41.6733 178.768 41.91 178.882 42.19L178.862 41.42V41.3H179.442V46H178.882V45.92L178.902 45.15C178.788 45.4167 178.565 45.6467 178.232 45.84C177.898 46.0333 177.522 46.13 177.102 46.13C176.402 46.13 175.828 45.89 175.382 45.41C174.942 44.93 174.722 44.3433 174.722 43.65ZM182.765 46.13C182.391 46.13 182.095 46.01 181.875 45.77C181.661 45.53 181.555 45.18 181.555 44.72C181.548 43.58 181.548 42.6133 181.555 41.82H180.725L180.835 41.3H181.545V40.32H182.105V41.3H182.965V41.82H182.105C182.091 42.7 182.091 43.58 182.105 44.46C182.105 44.7933 182.148 45.0567 182.235 45.25C182.328 45.4433 182.501 45.5467 182.755 45.56C182.835 45.5667 182.948 45.5533 183.095 45.52L183.225 46.06C183.091 46.1067 182.938 46.13 182.765 46.13ZM185.4 45.03C185.733 45.3833 186.163 45.56 186.69 45.56C187.217 45.56 187.657 45.3767 188.01 45.01C188.363 44.6367 188.54 44.1833 188.54 43.65C188.54 43.1167 188.36 42.6667 188 42.3C187.647 41.9333 187.21 41.75 186.69 41.75C186.163 41.75 185.733 41.9267 185.4 42.28C185.067 42.6333 184.9 43.09 184.9 43.65C184.9 44.21 185.067 44.67 185.4 45.03ZM184.33 43.65C184.33 42.91 184.553 42.3133 185 41.86C185.453 41.4067 186.023 41.18 186.71 41.18C187.143 41.18 187.52 41.28 187.84 41.48C188.16 41.6733 188.377 41.91 188.49 42.19L188.47 41.42V41.3H189.05V46H188.49V45.92L188.51 45.15C188.397 45.4167 188.173 45.6467 187.84 45.84C187.507 46.0333 187.13 46.13 186.71 46.13C186.01 46.13 185.437 45.89 184.99 45.41C184.55 44.93 184.33 44.3433 184.33 43.65ZM194.943 41.3L192.013 48.2H191.413L192.323 46.05L190.303 41.3H190.893L192.323 44.71L192.623 45.5L192.913 44.71L194.343 41.3H194.943ZM200.203 45.31C199.99 45.59 199.707 45.8033 199.353 45.95C199.007 46.0967 198.647 46.17 198.273 46.17C197.573 46.17 196.993 45.9367 196.533 45.47C196.08 45.0033 195.853 44.4033 195.853 43.67C195.853 42.93 196.08 42.33 196.533 41.87C196.987 41.41 197.55 41.18 198.223 41.18C198.883 41.18 199.44 41.4033 199.893 41.85C200.347 42.2967 200.577 42.87 200.583 43.57C200.583 43.7033 200.58 43.8 200.573 43.86H196.413C196.453 44.4133 196.647 44.8433 196.993 45.15C197.347 45.4567 197.773 45.61 198.273 45.61C198.907 45.61 199.417 45.38 199.803 44.92L200.203 45.31ZM196.443 43.34H200.013C199.96 42.8667 199.767 42.48 199.433 42.18C199.1 41.88 198.697 41.73 198.223 41.73C197.75 41.73 197.347 41.88 197.013 42.18C196.687 42.48 196.497 42.8667 196.443 43.34ZM206.194 41.3L204.194 46H203.534L201.544 41.3H202.134L203.554 44.76L203.874 45.56L204.184 44.76L205.594 41.3H206.194ZM207.566 38.67H208.086V46H207.566V38.67ZM208.526 43.54L210.436 41.3H211.136L209.166 43.54L211.256 46H210.566L208.526 43.54ZM213.26 45.03C213.593 45.3833 214.023 45.56 214.55 45.56C215.076 45.56 215.516 45.3767 215.87 45.01C216.223 44.6367 216.4 44.1833 216.4 43.65C216.4 43.1167 216.22 42.6667 215.86 42.3C215.506 41.9333 215.07 41.75 214.55 41.75C214.023 41.75 213.593 41.9267 213.26 42.28C212.926 42.6333 212.76 43.09 212.76 43.65C212.76 44.21 212.926 44.67 213.26 45.03ZM212.19 43.65C212.19 42.91 212.413 42.3133 212.86 41.86C213.313 41.4067 213.883 41.18 214.57 41.18C215.003 41.18 215.38 41.28 215.7 41.48C216.02 41.6733 216.236 41.91 216.35 42.19L216.33 41.42V41.3H216.91V46H216.35V45.92L216.37 45.15C216.256 45.4167 216.033 45.6467 215.7 45.84C215.366 46.0333 214.99 46.13 214.57 46.13C213.87 46.13 213.296 45.89 212.85 45.41C212.41 44.93 212.19 44.3433 212.19 43.65Z"/>
</mask>
<path d="M161.92 41.75C161.4 41.75 160.96 41.9333 160.6 42.3C160.247 42.6667 160.07 43.1167 160.07 43.65C160.07 44.1833 160.247 44.6367 160.6 45.01C160.953 45.3767 161.393 45.56 161.92 45.56C162.447 45.56 162.877 45.3833 163.21 45.03C163.543 44.67 163.71 44.21 163.71 43.65C163.71 43.09 163.543 42.6333 163.21 42.28C162.877 41.9267 162.447 41.75 161.92 41.75ZM159.56 46V38.67H160.12V41.4L160.1 42.17C160.213 41.8833 160.433 41.6467 160.76 41.46C161.093 41.2733 161.473 41.18 161.9 41.18C162.58 41.18 163.147 41.4167 163.6 41.89C164.053 42.3567 164.28 42.9433 164.28 43.65C164.28 44.3767 164.06 44.9733 163.62 45.44C163.187 45.9 162.613 46.13 161.9 46.13C161.473 46.13 161.097 46.03 160.77 45.83C160.45 45.63 160.233 45.3967 160.12 45.13L160.14 45.9V46H159.56ZM166.593 45.03C166.926 45.3833 167.356 45.56 167.883 45.56C168.41 45.56 168.85 45.3767 169.203 45.01C169.556 44.6367 169.733 44.1833 169.733 43.65C169.733 43.1167 169.553 42.6667 169.193 42.3C168.84 41.9333 168.403 41.75 167.883 41.75C167.356 41.75 166.926 41.9267 166.593 42.28C166.26 42.6333 166.093 43.09 166.093 43.65C166.093 44.21 166.26 44.67 166.593 45.03ZM165.523 43.65C165.523 42.91 165.746 42.3133 166.193 41.86C166.646 41.4067 167.216 41.18 167.903 41.18C168.336 41.18 168.713 41.28 169.033 41.48C169.353 41.6733 169.57 41.91 169.683 42.19L169.663 41.42V41.3H170.243V46H169.683V45.92L169.703 45.15C169.59 45.4167 169.366 45.6467 169.033 45.84C168.7 46.0333 168.323 46.13 167.903 46.13C167.203 46.13 166.63 45.89 166.183 45.41C165.743 44.93 165.523 44.3433 165.523 43.65ZM173.716 41.8C173.53 41.76 173.35 41.74 173.176 41.74C172.883 41.74 172.626 41.79 172.406 41.89V46H171.846V41.47C172.293 41.27 172.72 41.17 173.126 41.17C173.38 41.17 173.62 41.1933 173.846 41.24L173.716 41.8ZM175.792 45.03C176.125 45.3833 176.555 45.56 177.082 45.56C177.608 45.56 178.048 45.3767 178.402 45.01C178.755 44.6367 178.932 44.1833 178.932 43.65C178.932 43.1167 178.752 42.6667 178.392 42.3C178.038 41.9333 177.602 41.75 177.082 41.75C176.555 41.75 176.125 41.9267 175.792 42.28C175.458 42.6333 175.292 43.09 175.292 43.65C175.292 44.21 175.458 44.67 175.792 45.03ZM174.722 43.65C174.722 42.91 174.945 42.3133 175.392 41.86C175.845 41.4067 176.415 41.18 177.102 41.18C177.535 41.18 177.912 41.28 178.232 41.48C178.552 41.6733 178.768 41.91 178.882 42.19L178.862 41.42V41.3H179.442V46H178.882V45.92L178.902 45.15C178.788 45.4167 178.565 45.6467 178.232 45.84C177.898 46.0333 177.522 46.13 177.102 46.13C176.402 46.13 175.828 45.89 175.382 45.41C174.942 44.93 174.722 44.3433 174.722 43.65ZM182.765 46.13C182.391 46.13 182.095 46.01 181.875 45.77C181.661 45.53 181.555 45.18 181.555 44.72C181.548 43.58 181.548 42.6133 181.555 41.82H180.725L180.835 41.3H181.545V40.32H182.105V41.3H182.965V41.82H182.105C182.091 42.7 182.091 43.58 182.105 44.46C182.105 44.7933 182.148 45.0567 182.235 45.25C182.328 45.4433 182.501 45.5467 182.755 45.56C182.835 45.5667 182.948 45.5533 183.095 45.52L183.225 46.06C183.091 46.1067 182.938 46.13 182.765 46.13ZM185.4 45.03C185.733 45.3833 186.163 45.56 186.69 45.56C187.217 45.56 187.657 45.3767 188.01 45.01C188.363 44.6367 188.54 44.1833 188.54 43.65C188.54 43.1167 188.36 42.6667 188 42.3C187.647 41.9333 187.21 41.75 186.69 41.75C186.163 41.75 185.733 41.9267 185.4 42.28C185.067 42.6333 184.9 43.09 184.9 43.65C184.9 44.21 185.067 44.67 185.4 45.03ZM184.33 43.65C184.33 42.91 184.553 42.3133 185 41.86C185.453 41.4067 186.023 41.18 186.71 41.18C187.143 41.18 187.52 41.28 187.84 41.48C188.16 41.6733 188.377 41.91 188.49 42.19L188.47 41.42V41.3H189.05V46H188.49V45.92L188.51 45.15C188.397 45.4167 188.173 45.6467 187.84 45.84C187.507 46.0333 187.13 46.13 186.71 46.13C186.01 46.13 185.437 45.89 184.99 45.41C184.55 44.93 184.33 44.3433 184.33 43.65ZM194.943 41.3L192.013 48.2H191.413L192.323 46.05L190.303 41.3H190.893L192.323 44.71L192.623 45.5L192.913 44.71L194.343 41.3H194.943ZM200.203 45.31C199.99 45.59 199.707 45.8033 199.353 45.95C199.007 46.0967 198.647 46.17 198.273 46.17C197.573 46.17 196.993 45.9367 196.533 45.47C196.08 45.0033 195.853 44.4033 195.853 43.67C195.853 42.93 196.08 42.33 196.533 41.87C196.987 41.41 197.55 41.18 198.223 41.18C198.883 41.18 199.44 41.4033 199.893 41.85C200.347 42.2967 200.577 42.87 200.583 43.57C200.583 43.7033 200.58 43.8 200.573 43.86H196.413C196.453 44.4133 196.647 44.8433 196.993 45.15C197.347 45.4567 197.773 45.61 198.273 45.61C198.907 45.61 199.417 45.38 199.803 44.92L200.203 45.31ZM196.443 43.34H200.013C199.96 42.8667 199.767 42.48 199.433 42.18C199.1 41.88 198.697 41.73 198.223 41.73C197.75 41.73 197.347 41.88 197.013 42.18C196.687 42.48 196.497 42.8667 196.443 43.34ZM206.194 41.3L204.194 46H203.534L201.544 41.3H202.134L203.554 44.76L203.874 45.56L204.184 44.76L205.594 41.3H206.194ZM207.566 38.67H208.086V46H207.566V38.67ZM208.526 43.54L210.436 41.3H211.136L209.166 43.54L211.256 46H210.566L208.526 43.54ZM213.26 45.03C213.593 45.3833 214.023 45.56 214.55 45.56C215.076 45.56 215.516 45.3767 215.87 45.01C216.223 44.6367 216.4 44.1833 216.4 43.65C216.4 43.1167 216.22 42.6667 215.86 42.3C215.506 41.9333 215.07 41.75 214.55 41.75C214.023 41.75 213.593 41.9267 213.26 42.28C212.926 42.6333 212.76 43.09 212.76 43.65C212.76 44.21 212.926 44.67 213.26 45.03ZM212.19 43.65C212.19 42.91 212.413 42.3133 212.86 41.86C213.313 41.4067 213.883 41.18 214.57 41.18C215.003 41.18 215.38 41.28 215.7 41.48C216.02 41.6733 216.236 41.91 216.35 42.19L216.33 41.42V41.3H216.91V46H216.35V45.92L216.37 45.15C216.256 45.4167 216.033 45.6467 215.7 45.84C215.366 46.0333 214.99 46.13 214.57 46.13C213.87 46.13 213.296 45.89 212.85 45.41C212.41 44.93 212.19 44.3433 212.19 43.65Z" fill="#131313"/>
<path d="M160.6 42.3L160.529 42.2299L160.528 42.2306L160.6 42.3ZM160.6 45.01L160.527 45.0787L160.528 45.0794L160.6 45.01ZM163.21 45.03L163.283 45.0986L163.283 45.0979L163.21 45.03ZM163.21 42.28L163.283 42.2114L163.21 42.28ZM159.56 46H159.46V46.1H159.56V46ZM159.56 38.67V38.57H159.46V38.67H159.56ZM160.12 38.67H160.22V38.57H160.12V38.67ZM160.12 41.4L160.22 41.4026V41.4H160.12ZM160.1 42.17L160 42.1674L160.193 42.2068L160.1 42.17ZM160.76 41.46L160.711 41.3727L160.71 41.3732L160.76 41.46ZM163.6 41.89L163.528 41.9592L163.528 41.9597L163.6 41.89ZM163.62 45.44L163.547 45.3714L163.547 45.3714L163.62 45.44ZM160.77 45.83L160.717 45.9148L160.718 45.9153L160.77 45.83ZM160.12 45.13L160.212 45.0909L160.02 45.1326L160.12 45.13ZM160.14 45.9H160.24L160.24 45.8974L160.14 45.9ZM160.14 46V46.1H160.24V46H160.14ZM161.92 41.65C161.374 41.65 160.908 41.8439 160.529 42.2299L160.671 42.3701C161.012 42.0228 161.426 41.85 161.92 41.85V41.65ZM160.528 42.2306C160.156 42.6169 159.97 43.0921 159.97 43.65H160.17C160.17 43.1412 160.338 42.7165 160.672 42.3694L160.528 42.2306ZM159.97 43.65C159.97 44.2078 160.156 44.6861 160.527 45.0787L160.673 44.9413C160.338 44.5873 160.17 44.1588 160.17 43.65H159.97ZM160.528 45.0794C160.901 45.4664 161.367 45.66 161.92 45.66V45.46C161.419 45.46 161.006 45.287 160.672 44.9406L160.528 45.0794ZM161.92 45.66C162.472 45.66 162.929 45.4738 163.283 45.0986L163.137 44.9614C162.825 45.2929 162.422 45.46 161.92 45.46V45.66ZM163.283 45.0979C163.636 44.7168 163.81 44.2314 163.81 43.65H163.61C163.61 44.1886 163.45 44.6232 163.137 44.9621L163.283 45.0979ZM163.81 43.65C163.81 43.0687 163.636 42.5861 163.283 42.2114L163.137 42.3486C163.45 42.6806 163.61 43.1113 163.61 43.65H163.81ZM163.283 42.2114C162.929 41.8362 162.472 41.65 161.92 41.65V41.85C162.422 41.85 162.825 42.0171 163.137 42.3486L163.283 42.2114ZM159.66 46V38.67H159.46V46H159.66ZM159.56 38.77H160.12V38.57H159.56V38.77ZM160.02 38.67V41.4H160.22V38.67H160.02ZM160.02 41.3974L160 42.1674L160.2 42.1726L160.22 41.4026L160.02 41.3974ZM160.193 42.2068C160.296 41.9456 160.498 41.7248 160.81 41.5468L160.71 41.3732C160.368 41.5686 160.13 41.8211 160.007 42.1332L160.193 42.2068ZM160.809 41.5473C161.126 41.3699 161.488 41.28 161.9 41.28V41.08C161.458 41.08 161.061 41.1768 160.711 41.3727L160.809 41.5473ZM161.9 41.28C162.554 41.28 163.094 41.5063 163.528 41.9592L163.672 41.8208C163.199 41.327 162.606 41.08 161.9 41.08V41.28ZM163.528 41.9597C163.962 42.406 164.18 42.9669 164.18 43.65H164.38C164.38 42.9198 164.145 42.3073 163.672 41.8203L163.528 41.9597ZM164.18 43.65C164.18 44.3548 163.967 44.9258 163.547 45.3714L163.693 45.5086C164.153 45.0209 164.38 44.3985 164.38 43.65H164.18ZM163.547 45.3714C163.135 45.8087 162.59 46.03 161.9 46.03V46.23C162.637 46.23 163.238 45.9913 163.693 45.5086L163.547 45.3714ZM161.9 46.03C161.49 46.03 161.131 45.934 160.822 45.7447L160.718 45.9153C161.062 46.126 161.457 46.23 161.9 46.23V46.03ZM160.823 45.7452C160.515 45.5528 160.315 45.3337 160.212 45.0909L160.028 45.1691C160.151 45.4596 160.385 45.7072 160.717 45.9148L160.823 45.7452ZM160.02 45.1326L160.04 45.9026L160.24 45.8974L160.22 45.1274L160.02 45.1326ZM160.04 45.9V46H160.24V45.9H160.04ZM160.14 45.9H159.56V46.1H160.14V45.9ZM166.593 45.03L166.52 45.0979L166.52 45.0986L166.593 45.03ZM169.203 45.01L169.275 45.0794L169.276 45.0787L169.203 45.01ZM169.193 42.3L169.121 42.3694L169.122 42.3701L169.193 42.3ZM166.593 42.28L166.52 42.2114L166.593 42.28ZM166.193 41.86L166.122 41.7893L166.122 41.7898L166.193 41.86ZM169.033 41.48L168.98 41.5648L168.981 41.5656L169.033 41.48ZM169.683 42.19L169.59 42.2275L169.783 42.1874L169.683 42.19ZM169.663 41.42H169.563L169.563 41.4226L169.663 41.42ZM169.663 41.3V41.2H169.563V41.3H169.663ZM170.243 41.3H170.343V41.2H170.243V41.3ZM170.243 46V46.1H170.343V46H170.243ZM169.683 46H169.583V46.1H169.683V46ZM169.683 45.92L169.583 45.9174V45.92H169.683ZM169.703 45.15L169.803 45.1526L169.611 45.1109L169.703 45.15ZM169.033 45.84L168.983 45.7535L169.033 45.84ZM166.183 45.41L166.109 45.4776L166.11 45.4781L166.183 45.41ZM166.52 45.0986C166.874 45.4738 167.332 45.66 167.883 45.66V45.46C167.381 45.46 166.979 45.2929 166.666 44.9614L166.52 45.0986ZM167.883 45.66C168.436 45.66 168.902 45.4664 169.275 45.0794L169.131 44.9406C168.797 45.287 168.384 45.46 167.883 45.46V45.66ZM169.276 45.0787C169.647 44.6861 169.833 44.2078 169.833 43.65H169.633C169.633 44.1588 169.466 44.5873 169.13 44.9413L169.276 45.0787ZM169.833 43.65C169.833 43.0916 169.644 42.6161 169.264 42.2299L169.122 42.3701C169.463 42.7173 169.633 43.1418 169.633 43.65H169.833ZM169.265 42.2306C168.893 41.8439 168.43 41.65 167.883 41.65V41.85C168.377 41.85 168.787 42.0227 169.121 42.3694L169.265 42.2306ZM167.883 41.65C167.332 41.65 166.874 41.8362 166.52 42.2114L166.666 42.3486C166.979 42.0171 167.381 41.85 167.883 41.85V41.65ZM166.52 42.2114C166.167 42.5861 165.993 43.0687 165.993 43.65H166.193C166.193 43.1113 166.353 42.6806 166.666 42.3486L166.52 42.2114ZM165.993 43.65C165.993 44.2314 166.167 44.7168 166.52 45.0979L166.667 44.9621C166.353 44.6232 166.193 44.1886 166.193 43.65H165.993ZM165.623 43.65C165.623 42.9317 165.839 42.3618 166.264 41.9302L166.122 41.7898C165.654 42.2649 165.423 42.8883 165.423 43.65H165.623ZM166.264 41.9307C166.697 41.4976 167.241 41.28 167.903 41.28V41.08C167.192 41.08 166.596 41.3158 166.122 41.7893L166.264 41.9307ZM167.903 41.28C168.321 41.28 168.678 41.3761 168.98 41.5648L169.086 41.3952C168.748 41.1839 168.352 41.08 167.903 41.08V41.28ZM168.981 41.5656C169.287 41.7505 169.487 41.9719 169.59 42.2275L169.776 42.1525C169.653 41.8481 169.419 41.5962 169.085 41.3944L168.981 41.5656ZM169.783 42.1874L169.763 41.4174L169.563 41.4226L169.583 42.1926L169.783 42.1874ZM169.763 41.42V41.3H169.563V41.42H169.763ZM169.663 41.4H170.243V41.2H169.663V41.4ZM170.143 41.3V46H170.343V41.3H170.143ZM170.243 45.9H169.683V46.1H170.243V45.9ZM169.783 46V45.92H169.583V46H169.783ZM169.783 45.9226L169.803 45.1526L169.603 45.1474L169.583 45.9174L169.783 45.9226ZM169.611 45.1109C169.509 45.352 169.304 45.5675 168.983 45.7535L169.083 45.9265C169.429 45.7259 169.671 45.4814 169.795 45.1891L169.611 45.1109ZM168.983 45.7535C168.666 45.9372 168.307 46.03 167.903 46.03V46.23C168.339 46.23 168.733 46.1295 169.083 45.9265L168.983 45.7535ZM167.903 46.03C167.229 46.03 166.683 45.8001 166.256 45.3419L166.11 45.4781C166.577 45.9799 167.177 46.23 167.903 46.23V46.03ZM166.257 45.3424C165.835 44.8821 165.623 44.3201 165.623 43.65H165.423C165.423 44.3666 165.651 44.9779 166.109 45.4776L166.257 45.3424ZM173.716 41.8L173.695 41.8978L173.791 41.9184L173.814 41.8226L173.716 41.8ZM172.406 41.89L172.365 41.799L172.306 41.8256V41.89H172.406ZM172.406 46V46.1H172.506V46H172.406ZM171.846 46H171.746V46.1H171.846V46ZM171.846 41.47L171.805 41.3787L171.746 41.4052V41.47H171.846ZM173.846 41.24L173.944 41.2626L173.967 41.1627L173.866 41.1421L173.846 41.24ZM173.737 41.7022C173.544 41.6609 173.357 41.64 173.176 41.64V41.84C173.342 41.84 173.515 41.8591 173.695 41.8978L173.737 41.7022ZM173.176 41.64C172.872 41.64 172.6 41.6919 172.365 41.799L172.448 41.981C172.652 41.8881 172.894 41.84 173.176 41.84V41.64ZM172.306 41.89V46H172.506V41.89H172.306ZM172.406 45.9H171.846V46.1H172.406V45.9ZM171.946 46V41.47H171.746V46H171.946ZM171.887 41.5613C172.323 41.3659 172.736 41.27 173.126 41.27V41.07C172.703 41.07 172.262 41.1741 171.805 41.3787L171.887 41.5613ZM173.126 41.27C173.373 41.27 173.607 41.2928 173.826 41.3379L173.866 41.1421C173.633 41.0939 173.386 41.07 173.126 41.07V41.27ZM173.749 41.2174L173.619 41.7774L173.814 41.8226L173.944 41.2626L173.749 41.2174ZM175.792 45.03L175.718 45.0979L175.719 45.0986L175.792 45.03ZM178.402 45.01L178.474 45.0794L178.474 45.0787L178.402 45.01ZM178.392 42.3L178.32 42.3694L178.32 42.3701L178.392 42.3ZM175.792 42.28L175.719 42.2114L175.792 42.28ZM175.392 41.86L175.321 41.7893L175.32 41.7898L175.392 41.86ZM178.232 41.48L178.179 41.5648L178.18 41.5656L178.232 41.48ZM178.882 42.19L178.789 42.2275L178.982 42.1874L178.882 42.19ZM178.862 41.42H178.762L178.762 41.4226L178.862 41.42ZM178.862 41.3V41.2H178.762V41.3H178.862ZM179.442 41.3H179.542V41.2H179.442V41.3ZM179.442 46V46.1H179.542V46H179.442ZM178.882 46H178.782V46.1H178.882V46ZM178.882 45.92L178.782 45.9174V45.92H178.882ZM178.902 45.15L179.002 45.1526L178.81 45.1109L178.902 45.15ZM178.232 45.84L178.181 45.7535L178.232 45.84ZM175.382 45.41L175.308 45.4776L175.308 45.4781L175.382 45.41ZM175.719 45.0986C176.073 45.4738 176.53 45.66 177.082 45.66V45.46C176.58 45.46 176.177 45.2929 175.864 44.9614L175.719 45.0986ZM177.082 45.66C177.634 45.66 178.101 45.4664 178.474 45.0794L178.33 44.9406C177.996 45.287 177.582 45.46 177.082 45.46V45.66ZM178.474 45.0787C178.846 44.6861 179.032 44.2078 179.032 43.65H178.832C178.832 44.1588 178.664 44.5873 178.329 44.9413L178.474 45.0787ZM179.032 43.65C179.032 43.0916 178.842 42.6161 178.463 42.2299L178.32 42.3701C178.661 42.7173 178.832 43.1418 178.832 43.65H179.032ZM178.464 42.2306C178.091 41.8439 177.628 41.65 177.082 41.65V41.85C177.575 41.85 177.986 42.0227 178.32 42.3694L178.464 42.2306ZM177.082 41.65C176.53 41.65 176.073 41.8362 175.719 42.2114L175.864 42.3486C176.177 42.0171 176.58 41.85 177.082 41.85V41.65ZM175.719 42.2114C175.365 42.5861 175.192 43.0687 175.192 43.65H175.392C175.392 43.1113 175.551 42.6806 175.864 42.3486L175.719 42.2114ZM175.192 43.65C175.192 44.2314 175.365 44.7168 175.718 45.0979L175.865 44.9621C175.551 44.6232 175.392 44.1886 175.392 43.65H175.192ZM174.822 43.65C174.822 42.9317 175.038 42.3618 175.463 41.9302L175.32 41.7898C174.852 42.2649 174.622 42.8883 174.622 43.65H174.822ZM175.462 41.9307C175.895 41.4976 176.439 41.28 177.102 41.28V41.08C176.39 41.08 175.794 41.3158 175.321 41.7893L175.462 41.9307ZM177.102 41.28C177.519 41.28 177.877 41.3761 178.179 41.5648L178.285 41.3952C177.946 41.1839 177.551 41.08 177.102 41.08V41.28ZM178.18 41.5656C178.486 41.7505 178.685 41.9719 178.789 42.2275L178.974 42.1525C178.851 41.8481 178.617 41.5962 178.283 41.3944L178.18 41.5656ZM178.982 42.1874L178.962 41.4174L178.762 41.4226L178.782 42.1926L178.982 42.1874ZM178.962 41.42V41.3H178.762V41.42H178.962ZM178.862 41.4H179.442V41.2H178.862V41.4ZM179.342 41.3V46H179.542V41.3H179.342ZM179.442 45.9H178.882V46.1H179.442V45.9ZM178.982 46V45.92H178.782V46H178.982ZM178.982 45.9226L179.002 45.1526L178.802 45.1474L178.782 45.9174L178.982 45.9226ZM178.81 45.1109C178.707 45.352 178.502 45.5675 178.181 45.7535L178.282 45.9265C178.628 45.7259 178.869 45.4814 178.994 45.1891L178.81 45.1109ZM178.181 45.7535C177.865 45.9372 177.506 46.03 177.102 46.03V46.23C177.538 46.23 177.932 46.1295 178.282 45.9265L178.181 45.7535ZM177.102 46.03C176.427 46.03 175.881 45.8001 175.455 45.3419L175.308 45.4781C175.775 45.9799 176.376 46.23 177.102 46.23V46.03ZM175.455 45.3424C175.033 44.8821 174.822 44.3201 174.822 43.65H174.622C174.622 44.3666 174.85 44.9779 175.308 45.4776L175.455 45.3424ZM181.875 45.77L181.8 45.8364L181.801 45.8376L181.875 45.77ZM181.555 44.72H181.655L181.655 44.7194L181.555 44.72ZM181.555 41.82L181.655 41.8208L181.656 41.72H181.555V41.82ZM180.725 41.82L180.627 41.7993L180.601 41.92H180.725V41.82ZM180.835 41.3V41.2H180.754L180.737 41.2793L180.835 41.3ZM181.545 41.3V41.4H181.645V41.3H181.545ZM181.545 40.32V40.22H181.445V40.32H181.545ZM182.105 40.32H182.205V40.22H182.105V40.32ZM182.105 41.3H182.005V41.4H182.105V41.3ZM182.965 41.3H183.065V41.2H182.965V41.3ZM182.965 41.82V41.92H183.065V41.82H182.965ZM182.105 41.82V41.72H182.006L182.005 41.8185L182.105 41.82ZM182.105 44.46H182.205L182.205 44.4585L182.105 44.46ZM182.235 45.25L182.143 45.2909L182.145 45.2935L182.235 45.25ZM182.755 45.56L182.763 45.4603L182.76 45.4601L182.755 45.56ZM183.095 45.52L183.192 45.4966L183.169 45.4006L183.073 45.4225L183.095 45.52ZM183.225 46.06L183.258 46.1544L183.343 46.1245L183.322 46.0366L183.225 46.06ZM182.765 46.03C182.415 46.03 182.147 45.9186 181.948 45.7024L181.801 45.8376C182.043 46.1014 182.368 46.23 182.765 46.23V46.03ZM181.949 45.7036C181.758 45.4884 181.655 45.166 181.655 44.72H181.455C181.455 45.194 181.565 45.5716 181.8 45.8364L181.949 45.7036ZM181.655 44.7194C181.648 43.5797 181.648 42.6135 181.655 41.8208L181.455 41.8192C181.448 42.6131 181.448 43.5803 181.455 44.7206L181.655 44.7194ZM181.555 41.72H180.725V41.92H181.555V41.72ZM180.823 41.8407L180.933 41.3207L180.737 41.2793L180.627 41.7993L180.823 41.8407ZM180.835 41.4H181.545V41.2H180.835V41.4ZM181.645 41.3V40.32H181.445V41.3H181.645ZM181.545 40.42H182.105V40.22H181.545V40.42ZM182.005 40.32V41.3H182.205V40.32H182.005ZM182.105 41.4H182.965V41.2H182.105V41.4ZM182.865 41.3V41.82H183.065V41.3H182.865ZM182.965 41.72H182.105V41.92H182.965V41.72ZM182.005 41.8185C181.991 42.6995 181.991 43.5805 182.005 44.4615L182.205 44.4585C182.191 43.5795 182.191 42.7005 182.205 41.8215L182.005 41.8185ZM182.005 44.46C182.005 44.8002 182.049 45.0794 182.143 45.2909L182.326 45.2091C182.247 45.0339 182.205 44.7864 182.205 44.46H182.005ZM182.145 45.2935C182.257 45.5262 182.468 45.645 182.749 45.6599L182.76 45.4601C182.535 45.4483 182.399 45.3604 182.325 45.2065L182.145 45.2935ZM182.746 45.6597C182.842 45.6676 182.967 45.6515 183.117 45.6175L183.073 45.4225C182.929 45.4552 182.827 45.4657 182.763 45.4603L182.746 45.6597ZM182.997 45.5434L183.127 46.0834L183.322 46.0366L183.192 45.4966L182.997 45.5434ZM183.192 45.9656C183.071 46.0078 182.929 46.03 182.765 46.03V46.23C182.947 46.23 183.112 46.2055 183.258 46.1544L183.192 45.9656ZM185.4 45.03L185.327 45.0979L185.327 45.0986L185.4 45.03ZM188.01 45.01L188.082 45.0794L188.083 45.0787L188.01 45.01ZM188 42.3L187.928 42.3694L187.929 42.3701L188 42.3ZM185.4 42.28L185.327 42.2114L185.4 42.28ZM185 41.86L184.929 41.7893L184.929 41.7898L185 41.86ZM187.84 41.48L187.787 41.5648L187.788 41.5656L187.84 41.48ZM188.49 42.19L188.397 42.2275L188.59 42.1874L188.49 42.19ZM188.47 41.42H188.37L188.37 41.4226L188.47 41.42ZM188.47 41.3V41.2H188.37V41.3H188.47ZM189.05 41.3H189.15V41.2H189.05V41.3ZM189.05 46V46.1H189.15V46H189.05ZM188.49 46H188.39V46.1H188.49V46ZM188.49 45.92L188.39 45.9174V45.92H188.49ZM188.51 45.15L188.61 45.1526L188.418 45.1109L188.51 45.15ZM187.84 45.84L187.79 45.7535L187.84 45.84ZM184.99 45.41L184.916 45.4776L184.917 45.4781L184.99 45.41ZM185.327 45.0986C185.681 45.4738 186.139 45.66 186.69 45.66V45.46C186.188 45.46 185.786 45.2929 185.473 44.9614L185.327 45.0986ZM186.69 45.66C187.243 45.66 187.709 45.4664 188.082 45.0794L187.938 44.9406C187.604 45.287 187.191 45.46 186.69 45.46V45.66ZM188.083 45.0787C188.454 44.6861 188.64 44.2078 188.64 43.65H188.44C188.44 44.1588 188.273 44.5873 187.938 44.9413L188.083 45.0787ZM188.64 43.65C188.64 43.0916 188.451 42.6161 188.072 42.2299L187.929 42.3701C188.27 42.7173 188.44 43.1418 188.44 43.65H188.64ZM188.072 42.2306C187.7 41.8439 187.237 41.65 186.69 41.65V41.85C187.184 41.85 187.594 42.0227 187.928 42.3694L188.072 42.2306ZM186.69 41.65C186.139 41.65 185.681 41.8362 185.327 42.2114L185.473 42.3486C185.786 42.0171 186.188 41.85 186.69 41.85V41.65ZM185.327 42.2114C184.974 42.5861 184.8 43.0687 184.8 43.65H185C185 43.1113 185.16 42.6806 185.473 42.3486L185.327 42.2114ZM184.8 43.65C184.8 44.2314 184.974 44.7168 185.327 45.0979L185.474 44.9621C185.16 44.6232 185 44.1886 185 43.65H184.8ZM184.43 43.65C184.43 42.9317 184.646 42.3618 185.071 41.9302L184.929 41.7898C184.461 42.2649 184.23 42.8883 184.23 43.65H184.43ZM185.071 41.9307C185.504 41.4976 186.048 41.28 186.71 41.28V41.08C185.999 41.08 185.403 41.3158 184.929 41.7893L185.071 41.9307ZM186.71 41.28C187.128 41.28 187.485 41.3761 187.787 41.5648L187.893 41.3952C187.555 41.1839 187.159 41.08 186.71 41.08V41.28ZM187.788 41.5656C188.094 41.7505 188.294 41.9719 188.397 42.2275L188.583 42.1525C188.46 41.8481 188.226 41.5962 187.892 41.3944L187.788 41.5656ZM188.59 42.1874L188.57 41.4174L188.37 41.4226L188.39 42.1926L188.59 42.1874ZM188.57 41.42V41.3H188.37V41.42H188.57ZM188.47 41.4H189.05V41.2H188.47V41.4ZM188.95 41.3V46H189.15V41.3H188.95ZM189.05 45.9H188.49V46.1H189.05V45.9ZM188.59 46V45.92H188.39V46H188.59ZM188.59 45.9226L188.61 45.1526L188.41 45.1474L188.39 45.9174L188.59 45.9226ZM188.418 45.1109C188.316 45.352 188.111 45.5675 187.79 45.7535L187.89 45.9265C188.236 45.7259 188.478 45.4814 188.602 45.1891L188.418 45.1109ZM187.79 45.7535C187.473 45.9372 187.114 46.03 186.71 46.03V46.23C187.146 46.23 187.54 46.1295 187.89 45.9265L187.79 45.7535ZM186.71 46.03C186.036 46.03 185.49 45.8001 185.063 45.3419L184.917 45.4781C185.384 45.9799 185.984 46.23 186.71 46.23V46.03ZM185.064 45.3424C184.642 44.8821 184.43 44.3201 184.43 43.65H184.23C184.23 44.3666 184.458 44.9779 184.916 45.4776L185.064 45.3424ZM194.943 41.3L195.035 41.3391L195.094 41.2H194.943V41.3ZM192.013 48.2V48.3H192.079L192.105 48.2391L192.013 48.2ZM191.413 48.2L191.321 48.161L191.262 48.3H191.413V48.2ZM192.323 46.05L192.415 46.089L192.432 46.0499L192.415 46.0109L192.323 46.05ZM190.303 41.3V41.2H190.152L190.211 41.3391L190.303 41.3ZM190.893 41.3L190.986 41.2613L190.96 41.2H190.893V41.3ZM192.323 44.71L192.417 44.6745L192.416 44.6713L192.323 44.71ZM192.623 45.5L192.53 45.5355L192.625 45.7859L192.717 45.5345L192.623 45.5ZM192.913 44.71L192.821 44.6713L192.819 44.6755L192.913 44.71ZM194.343 41.3V41.2H194.277L194.251 41.2613L194.343 41.3ZM194.851 41.2609L191.921 48.1609L192.105 48.2391L195.035 41.3391L194.851 41.2609ZM192.013 48.1H191.413V48.3H192.013V48.1ZM191.505 48.239L192.415 46.089L192.231 46.011L191.321 48.161L191.505 48.239ZM192.415 46.0109L190.395 41.2609L190.211 41.3391L192.231 46.0891L192.415 46.0109ZM190.303 41.4H190.893V41.2H190.303V41.4ZM190.801 41.3387L192.231 44.7487L192.416 44.6713L190.986 41.2613L190.801 41.3387ZM192.23 44.7455L192.53 45.5355L192.717 45.4645L192.417 44.6745L192.23 44.7455ZM192.717 45.5345L193.007 44.7445L192.819 44.6755L192.529 45.4655L192.717 45.5345ZM193.006 44.7487L194.436 41.3387L194.251 41.2613L192.821 44.6713L193.006 44.7487ZM194.343 41.4H194.943V41.2H194.343V41.4ZM200.203 45.31L200.283 45.3706L200.336 45.3002L200.273 45.2384L200.203 45.31ZM199.353 45.95L199.315 45.8576L199.314 45.8579L199.353 45.95ZM196.533 45.47L196.462 45.5397L196.462 45.5402L196.533 45.47ZM196.533 41.87L196.462 41.7998L196.533 41.87ZM199.893 41.85L199.823 41.9212L199.893 41.85ZM200.583 43.57H200.683L200.683 43.569L200.583 43.57ZM200.573 43.86V43.96H200.663L200.673 43.871L200.573 43.86ZM196.413 43.86V43.76H196.306L196.314 43.8672L196.413 43.86ZM196.993 45.15L196.927 45.2249L196.928 45.2255L196.993 45.15ZM199.803 44.92L199.873 44.8484L199.796 44.7732L199.727 44.8557L199.803 44.92ZM196.443 43.34L196.344 43.3288L196.331 43.44H196.443V43.34ZM200.013 43.34V43.44H200.125L200.113 43.3288L200.013 43.34ZM199.433 42.18L199.5 42.1057L199.433 42.18ZM197.013 42.18L196.946 42.1057L196.946 42.1063L197.013 42.18ZM200.124 45.2494C199.922 45.5142 199.653 45.7171 199.315 45.8576L199.392 46.0424C199.76 45.8895 200.058 45.6658 200.283 45.3706L200.124 45.2494ZM199.314 45.8579C198.98 45.9994 198.633 46.07 198.273 46.07V46.27C198.66 46.27 199.033 46.1939 199.392 46.0421L199.314 45.8579ZM198.273 46.07C197.598 46.07 197.044 45.846 196.604 45.3998L196.462 45.5402C196.942 46.0273 197.549 46.27 198.273 46.27V46.07ZM196.605 45.4003C196.172 44.9547 195.953 44.3809 195.953 43.67H195.753C195.753 44.4258 195.988 45.0519 196.462 45.5397L196.605 45.4003ZM195.953 43.67C195.953 42.9521 196.172 42.3787 196.605 41.9402L196.462 41.7998C195.988 42.2813 195.753 42.9079 195.753 43.67H195.953ZM196.605 41.9402C197.038 41.5002 197.575 41.28 198.223 41.28V41.08C197.524 41.08 196.935 41.3198 196.462 41.7998L196.605 41.9402ZM198.223 41.28C198.858 41.28 199.389 41.4937 199.823 41.9212L199.963 41.7788C199.491 41.3129 198.908 41.08 198.223 41.08V41.28ZM199.823 41.9212C200.256 42.3474 200.477 42.8945 200.483 43.571L200.683 43.569C200.676 42.8455 200.438 42.2459 199.963 41.7788L199.823 41.9212ZM200.483 43.57C200.483 43.703 200.48 43.7949 200.474 43.849L200.673 43.871C200.68 43.8051 200.683 43.7037 200.683 43.57H200.483ZM200.573 43.76H196.413V43.96H200.573V43.76ZM196.314 43.8672C196.355 44.4411 196.557 44.8976 196.927 45.2249L197.06 45.0751C196.736 44.7891 196.552 44.3856 196.513 43.8528L196.314 43.8672ZM196.928 45.2255C197.301 45.5491 197.751 45.71 198.273 45.71V45.51C197.796 45.51 197.393 45.3642 197.059 45.0745L196.928 45.2255ZM198.273 45.71C198.934 45.71 199.473 45.4683 199.88 44.9843L199.727 44.8557C199.36 45.2917 198.879 45.51 198.273 45.51V45.71ZM199.733 44.9916L200.133 45.3816L200.273 45.2384L199.873 44.8484L199.733 44.9916ZM196.443 43.44H200.013V43.24H196.443V43.44ZM200.113 43.3288C200.057 42.8328 199.853 42.4231 199.5 42.1057L199.366 42.2543C199.68 42.5369 199.863 42.9005 199.914 43.3512L200.113 43.3288ZM199.5 42.1057C199.147 41.7882 198.72 41.63 198.223 41.63V41.83C198.673 41.83 199.052 41.9718 199.366 42.2543L199.5 42.1057ZM198.223 41.63C197.727 41.63 197.299 41.7882 196.946 42.1057L197.08 42.2543C197.394 41.9718 197.773 41.83 198.223 41.83V41.63ZM196.946 42.1063C196.6 42.4239 196.4 42.8334 196.344 43.3288L196.543 43.3512C196.594 42.8999 196.773 42.5361 197.081 42.2537L196.946 42.1063ZM206.194 41.3L206.286 41.3392L206.345 41.2H206.194V41.3ZM204.194 46V46.1H204.26L204.286 46.0392L204.194 46ZM203.534 46L203.442 46.039L203.467 46.1H203.534V46ZM201.544 41.3V41.2H201.393L201.452 41.339L201.544 41.3ZM202.134 41.3L202.226 41.262L202.201 41.2H202.134V41.3ZM203.554 44.76L203.647 44.7229L203.646 44.722L203.554 44.76ZM203.874 45.56L203.781 45.5971L203.875 45.833L203.967 45.5961L203.874 45.56ZM204.184 44.76L204.091 44.7223L204.09 44.7239L204.184 44.76ZM205.594 41.3V41.2H205.526L205.501 41.2623L205.594 41.3ZM206.102 41.2608L204.102 45.9608L204.286 46.0392L206.286 41.3392L206.102 41.2608ZM204.194 45.9H203.534V46.1H204.194V45.9ZM203.626 45.961L201.636 41.261L201.452 41.339L203.442 46.039L203.626 45.961ZM201.544 41.4H202.134V41.2H201.544V41.4ZM202.041 41.338L203.461 44.798L203.646 44.722L202.226 41.262L202.041 41.338ZM203.461 44.7971L203.781 45.5971L203.967 45.5229L203.647 44.7229L203.461 44.7971ZM203.967 45.5961L204.277 44.7961L204.09 44.7239L203.78 45.5239L203.967 45.5961ZM204.276 44.7977L205.686 41.3377L205.501 41.2623L204.091 44.7223L204.276 44.7977ZM205.594 41.4H206.194V41.2H205.594V41.4ZM207.566 38.67V38.57H207.466V38.67H207.566ZM208.086 38.67H208.186V38.57H208.086V38.67ZM208.086 46V46.1H208.186V46H208.086ZM207.566 46H207.466V46.1H207.566V46ZM208.526 43.54L208.45 43.4751L208.396 43.5391L208.449 43.6038L208.526 43.54ZM210.436 41.3V41.2H210.39L210.36 41.2351L210.436 41.3ZM211.136 41.3L211.211 41.366L211.358 41.2H211.136V41.3ZM209.166 43.54L209.091 43.474L209.034 43.5389L209.09 43.6047L209.166 43.54ZM211.256 46V46.1H211.473L211.333 45.9353L211.256 46ZM210.566 46L210.489 46.0638L210.519 46.1H210.566V46ZM207.566 38.77H208.086V38.57H207.566V38.77ZM207.986 38.67V46H208.186V38.67H207.986ZM208.086 45.9H207.566V46.1H208.086V45.9ZM207.666 46V38.67H207.466V46H207.666ZM208.602 43.6049L210.512 41.3649L210.36 41.2351L208.45 43.4751L208.602 43.6049ZM210.436 41.4H211.136V41.2H210.436V41.4ZM211.061 41.234L209.091 43.474L209.241 43.606L211.211 41.366L211.061 41.234ZM209.09 43.6047L211.18 46.0647L211.333 45.9353L209.243 43.4753L209.09 43.6047ZM211.256 45.9H210.566V46.1H211.256V45.9ZM210.643 45.9362L208.603 43.4762L208.449 43.6038L210.489 46.0638L210.643 45.9362ZM213.26 45.03L213.186 45.0979L213.187 45.0986L213.26 45.03ZM215.87 45.01L215.942 45.0794L215.942 45.0787L215.87 45.01ZM215.86 42.3L215.788 42.3694L215.788 42.3701L215.86 42.3ZM213.26 42.28L213.187 42.2114L213.26 42.28ZM212.86 41.86L212.789 41.7893L212.788 41.7898L212.86 41.86ZM215.7 41.48L215.647 41.5648L215.648 41.5656L215.7 41.48ZM216.35 42.19L216.257 42.2275L216.449 42.1874L216.35 42.19ZM216.33 41.42H216.229L216.23 41.4226L216.33 41.42ZM216.33 41.3V41.2H216.23V41.3H216.33ZM216.91 41.3H217.01V41.2H216.91V41.3ZM216.91 46V46.1H217.01V46H216.91ZM216.35 46H216.25V46.1H216.35V46ZM216.35 45.92L216.25 45.9174V45.92H216.35ZM216.37 45.15L216.469 45.1526L216.277 45.1109L216.37 45.15ZM215.7 45.84L215.649 45.7535L215.7 45.84ZM212.85 45.41L212.776 45.4776L212.776 45.4781L212.85 45.41ZM213.187 45.0986C213.541 45.4738 213.998 45.66 214.55 45.66V45.46C214.048 45.46 213.645 45.2929 213.332 44.9614L213.187 45.0986ZM214.55 45.66C215.102 45.66 215.569 45.4664 215.942 45.0794L215.798 44.9406C215.464 45.287 215.05 45.46 214.55 45.46V45.66ZM215.942 45.0787C216.314 44.6861 216.5 44.2078 216.5 43.65H216.3C216.3 44.1588 216.132 44.5873 215.797 44.9413L215.942 45.0787ZM216.5 43.65C216.5 43.0916 216.31 42.6161 215.931 42.2299L215.788 42.3701C216.129 42.7173 216.3 43.1418 216.3 43.65H216.5ZM215.932 42.2306C215.559 41.8439 215.096 41.65 214.55 41.65V41.85C215.043 41.85 215.453 42.0227 215.788 42.3694L215.932 42.2306ZM214.55 41.65C213.998 41.65 213.541 41.8362 213.187 42.2114L213.332 42.3486C213.645 42.0171 214.048 41.85 214.55 41.85V41.65ZM213.187 42.2114C212.833 42.5861 212.66 43.0687 212.66 43.65H212.86C212.86 43.1113 213.019 42.6806 213.332 42.3486L213.187 42.2114ZM212.66 43.65C212.66 44.2314 212.833 44.7168 213.186 45.0979L213.333 44.9621C213.019 44.6232 212.86 44.1886 212.86 43.65H212.66ZM212.29 43.65C212.29 42.9317 212.506 42.3618 212.931 41.9302L212.788 41.7898C212.32 42.2649 212.09 42.8883 212.09 43.65H212.29ZM212.93 41.9307C213.363 41.4976 213.907 41.28 214.57 41.28V41.08C213.858 41.08 213.262 41.3158 212.789 41.7893L212.93 41.9307ZM214.57 41.28C214.987 41.28 215.345 41.3761 215.647 41.5648L215.753 41.3952C215.414 41.1839 215.019 41.08 214.57 41.08V41.28ZM215.648 41.5656C215.954 41.7505 216.153 41.9719 216.257 42.2275L216.442 42.1525C216.319 41.8481 216.085 41.5962 215.751 41.3944L215.648 41.5656ZM216.449 42.1874L216.429 41.4174L216.23 41.4226L216.25 42.1926L216.449 42.1874ZM216.43 41.42V41.3H216.23V41.42H216.43ZM216.33 41.4H216.91V41.2H216.33V41.4ZM216.81 41.3V46H217.01V41.3H216.81ZM216.91 45.9H216.35V46.1H216.91V45.9ZM216.45 46V45.92H216.25V46H216.45ZM216.449 45.9226L216.469 45.1526L216.27 45.1474L216.25 45.9174L216.449 45.9226ZM216.277 45.1109C216.175 45.352 215.97 45.5675 215.649 45.7535L215.75 45.9265C216.096 45.7259 216.337 45.4814 216.462 45.1891L216.277 45.1109ZM215.649 45.7535C215.333 45.9372 214.974 46.03 214.57 46.03V46.23C215.006 46.23 215.4 46.1295 215.75 45.9265L215.649 45.7535ZM214.57 46.03C213.895 46.03 213.349 45.8001 212.923 45.3419L212.776 45.4781C213.243 45.9799 213.844 46.23 214.57 46.23V46.03ZM212.923 45.3424C212.501 44.8821 212.29 44.3201 212.29 43.65H212.09C212.09 44.3666 212.318 44.9779 212.776 45.4776L212.923 45.3424Z" fill="#131313" mask="url(#path-3-outside-2_227_54)"/>
<path d="M6.355 0C6.355 0 2.47833 3.42 2.17166 10.6117C1.83 18.4717 6.045 26.395 19.9283 27.405C19.9717 27.4133 20.02 27.4133 20.0617 27.4183C13.01 19.2233 8.26 8.735 6.355 0ZM20.0617 27.4183C21.2165 28.7605 22.4404 30.0416 23.7283 31.2567H8.80333C9.00333 31.72 9.68666 32.0433 11.2417 32.135C20.5583 32.6883 21.875 40 35.21 40C36.38 40 37.11 39.93 37.8467 39.7917C32.58 38.1717 27.845 35.125 23.7283 31.2567H27.4133C28.9417 31.2567 29.6217 31.3833 30.0467 31.575C29.3933 29.545 27.33 27.9617 20.0617 27.4183Z" fill="#131313"/>
</svg>
